<?xml version="1.0" encoding="UTF-8"?>
<svg xmlns="http://www.w3.org/2000/svg" version="1.1" viewBox="0 0 96 96">
  <!-- Generator: Adobe Illustrator 28.7.7, SVG Export Plug-In . SVG Version: 1.2.0 Build 194)  -->
  <g>
    <g id="Ebene_1">
      <path fill="#B1C32B" d="M48,0C35,0,33.3,0,28.2.3c-5.1.2-8.6,1-11.7,2.2-3.2,1.2-5.8,2.9-8.5,5.5-2.7,2.7-4.3,5.3-5.5,8.5-1.2,3.1-2,6.5-2.2,11.7-.2,5.1-.3,6.8-.3,19.8s0,14.7.3,19.8c.2,5.1,1,8.6,2.2,11.7,1.2,3.2,2.9,5.8,5.5,8.5,2.7,2.7,5.3,4.3,8.5,5.5,3.1,1.2,6.5,2,11.7,2.2,5.1.2,6.8.3,19.8.3s14.7,0,19.8-.3c5.1-.2,8.6-1,11.7-2.2,3.2-1.2,5.8-2.9,8.5-5.5,2.7-2.7,4.3-5.3,5.5-8.5,1.2-3.1,2-6.5,2.2-11.7.2-5.1.3-6.8.3-19.8s0-14.7-.3-19.8c-.2-5.1-1.1-8.6-2.2-11.7-1.2-3.2-2.9-5.8-5.5-8.5-2.7-2.7-5.3-4.3-8.5-5.5-3.1-1.2-6.6-2-11.7-2.2-5.1-.2-6.8-.3-19.8-.3h0ZM43.7,8.7c1.3,0,2.7,0,4.3,0,12.8,0,14.3,0,19.4.3,4.7.2,7.2,1,8.9,1.7,2.2.9,3.8,1.9,5.5,3.6,1.7,1.7,2.7,3.3,3.6,5.5.7,1.7,1.4,4.2,1.7,8.9.2,5.1.3,6.6.3,19.4s0,14.3-.3,19.4c-.2,4.7-1,7.2-1.7,8.9-.9,2.2-1.9,3.8-3.6,5.5-1.7,1.7-3.3,2.7-5.5,3.6-1.7.7-4.2,1.4-8.9,1.7-5.1.2-6.6.3-19.4.3s-14.3,0-19.4-.3c-4.7-.2-7.2-1-8.9-1.7-2.2-.9-3.8-1.9-5.5-3.6-1.7-1.7-2.7-3.3-3.6-5.5-.7-1.7-1.4-4.2-1.7-8.9-.2-5.1-.3-6.6-.3-19.4s0-14.3.3-19.4c.2-4.7,1-7.2,1.7-8.9.9-2.2,1.9-3.8,3.6-5.5,1.7-1.7,3.3-2.7,5.5-3.6,1.7-.7,4.2-1.4,8.9-1.7,4.4-.2,6.1-.3,15.1-.3h0ZM73.6,16.6c-3.2,0-5.8,2.6-5.8,5.8s2.6,5.8,5.8,5.8,5.8-2.6,5.8-5.8-2.6-5.8-5.8-5.8h0ZM48,23.4c-13.6,0-24.7,11-24.7,24.7s11,24.6,24.7,24.6c13.6,0,24.6-11,24.6-24.6s-11-24.7-24.6-24.7h0ZM48,32c8.8,0,16,7.2,16,16s-7.2,16-16,16-16-7.2-16-16,7.2-16,16-16Z"/>
    </g>
  </g>
</svg>
