<?xml version="1.0" encoding="UTF-8"?><svg id="Ebene_1" xmlns="http://www.w3.org/2000/svg" viewBox="0 0 68.03 99.21"><defs><style>.cls-1{fill:#2c2e83;}.cls-2{fill:#faef82;}.cls-3{fill:#d681b4;}</style></defs><rect class="cls-1" width="68.03" height="99.21"/><path class="cls-3" d="M8.51,17.16h4.54v9.84h5.67v4.22h-10.2v-14.06Z"/><path class="cls-3" d="M24.17,17.16h6.09l4.32,14.06h-4.54l-.64-2.22h-4.39l-.64,2.22h-4.54l4.32-14.06ZM28.4,25.43c-.26-.92-.43-1.56-.6-2.15-.19-.72-.32-1.28-.53-2.28h-.13c-.28,1.19-.28,1.3-.53,2.28l-.57,2.15h2.36Z"/><path class="cls-3" d="M36.01,30.41v-3.9c2,.87,3.81,1.47,5.11,1.47.81,0,1.49-.23,1.49-.75,0-.68-1.15-1.11-2.32-1.51-.83-.3-1.62-.66-2.3-1.11-1.19-.83-2.04-1.96-2.04-3.6,0-2.49,1.85-4.2,5.56-4.2,1.53,0,2.92.26,4.56,1.11v3.75c-1.55-.85-2.68-1.34-3.86-1.34-.87,0-1.53.32-1.53.85,0,.45.45.81,1.04,1.13.62.32,1.38.58,1.96.79,2.45.89,3.51,1.96,3.51,4.05,0,2.58-1.64,4.41-5.94,4.41-1.79,0-3.66-.32-5.24-1.15Z"/><path class="cls-3" d="M52.39,21.38h-3.92v-4.22h12.36v4.22h-3.9v9.84h-4.54v-9.84Z"/><path class="cls-3" d="M7.47,42.25c0-4.39,1.98-7.33,7.09-7.33,1.6,0,3.37.28,5.13.98v3.9c-1.41-.47-2.88-.79-4.28-.79-1.98,0-3.3.9-3.3,3.22,0,2.02.98,3.37,3.47,3.37,1.15,0,2.58-.21,4.32-.79v3.88c-1.34.6-3.07.98-5.2.98-4.35,0-7.24-2.07-7.24-7.41Z"/><path class="cls-3" d="M25.61,35.26h6.09l4.32,14.06h-4.54l-.64-2.22h-4.39l-.64,2.22h-4.54l4.32-14.06ZM29.85,43.53c-.26-.92-.43-1.56-.6-2.15-.19-.72-.32-1.28-.53-2.28h-.13c-.28,1.19-.28,1.3-.53,2.28l-.58,2.15h2.36Z"/><path class="cls-3" d="M38.03,35.26h4.54v9.84h5.67v4.22h-10.2v-14.06Z"/><path class="cls-3" d="M50.62,35.26h4.54v9.84h5.67v4.22h-10.2v-14.06Z"/><path class="cls-2" d="M13.65,75.19c0-.65-.38-1.08-1.38-1.08-.57,0-1.36.2-2.4.72v-2.32c.84-.51,2-.85,3.55-.85,2.2,0,3.68.75,3.68,2.7,0,1.55-.94,3-3.32,4.08h0s3.55.01,3.55.01v2.81h-7.44v-2.81c2.26-.94,3.76-2.05,3.76-3.27Z"/><path class="cls-2" d="M22.94,79.68h-4.09v-2.88l3.31-4.9h3.81v5.61h.7v2.17h-.7v1.59h-3.03v-1.59ZM22.94,77.51v-2.39l-1.59,2.39h1.59Z"/><path class="cls-2" d="M28.02,80.25c0-.75.51-1.26,1.31-1.26s1.32.51,1.32,1.26-.53,1.26-1.32,1.26-1.31-.5-1.31-1.26Z"/><path class="cls-2" d="M35,71.9h3.48c.54,1.46.94,2.64,1.27,3.72.18.62.24,1.14.3,1.68h.08c.06-.54.11-1.05.3-1.68.33-1.08.72-2.26,1.26-3.72h3.48v9.38h-3.03c0-1.95-.06-2.32.2-4.36h-.09c-.43,1.73-.85,2.9-1.29,4.36h-1.76c-.44-1.46-.87-2.63-1.29-4.36h-.08c.26,2.03.2,2.42.2,4.36h-3.03v-9.38Z"/><path class="cls-2" d="M46.6,79.7c0-1.31,1.15-1.83,2-2.03.71-.17,1.92-.47,1.92-1.01,0-.3-.34-.54-.97-.54-.74,0-1.68.33-2.36.82v-2.27c.84-.47,2.13-.74,3.18-.74,1.86,0,3,.82,3.03,2.88.01,1.24.03,1.83.07,2.36.06.74.17,1.42.4,2.1h-2.71c-.11-.24-.2-.54-.28-1.05h-.07c-.54.92-1.25,1.28-2.14,1.28-1.25,0-2.06-.71-2.06-1.8ZM49.81,79.67c.51,0,.8-.43.8-1.29v-.17c-.24.24-.61.38-.85.53-.27.17-.37.36-.37.55,0,.27.17.38.43.38Z"/><path class="cls-2" d="M56.68,74.33c.47,0,.95-.08,1.46-.2v7.15h-2.94v-7.15c.47.1.95.2,1.48.2ZM56.69,71.71c1.15,0,1.42.41,1.42,1.04,0,.78-.43,1.07-1.42,1.07s-1.42-.28-1.42-1.07c0-.62.27-1.04,1.42-1.04Z"/></svg>