<?xml version="1.0" encoding="UTF-8"?>
<svg xmlns="http://www.w3.org/2000/svg" viewBox="0 0 1440 800" width="1440" height="800" preserveAspectRatio="xMaxYMax slice" overflow="visible">
  <defs>
    <clipPath id="motto-d-clip-a">
      <polygon points="485.5 679.2 637.8 679.2 668.2 621.9 550.7 608.9 485.5 679.2" fill="none" />
    </clipPath>
    <clipPath id="motto-d-clip-b">
      <polygon points="750.4 671.5 813.6 677.7 803.4 615.7 745.6 595.5 750.4 671.5" fill="none" />
    </clipPath>
  </defs>
  <path d="M40.1,354.9l-10.3-2,6.7,4.7-4.7-1.5c-1-.3-1.7.2-2.6,1.5l48.6,17.2c18,6.4,36.6,13.3,54,20.5,1.3.5,6.5,1.6,6.9,1l1.7-3.3c1.2-2.3,5-5.3,5.6-7.7l1.9-7.4c-38.3-15.7-76.8-31.6-116.1-40.4l11.5,6-10.5-3.1-2.9,3.1,8.4,4.5-6.9-1.7,2.3,2.9c.5.7-2.7.6-4.7.8l11.4,4.9Z" fill="#2c2e83" />
  <path d="M53.4,295.5h-2.7c0-.1,10,7.6,10,7.6,7.5,5.8,99.6,71.7,105.5,80l3.5-5.4c.4-.6,2-2.3,2-2.8l.4-3.1,1.9.8c.4.2,1.7-2.3,2.1-3l3.5-6.3-90.7-66.1c-6.2-5.1-11.8-10.2-20-12.8,1,1.4,2.5,2.4,3.9,3.7l12.1,10.5c-8.2-4.2-14.1-12-23.2-15.1l-6,2.9c-1.2,2.7-.8,5.8.5,6.9l6.2,4.9-9.9-5.2.9,2.5Z" fill="#2c2e83" />
  <path d="M717.9,150.4l-1.6-9,4,5.9-1.2-4.1c-.3-.8.2-1.5,1.3-2.3l14.3,42.5c5.3,15.7,11,32.1,17,47.3.5,1.2,1.3,5.7.7,6l-2.9,1.5c-2,1-4.7,4.3-6.8,4.8l-6.4,1.5c-13.1-33.5-26.4-67.4-33.4-101.7l5,10.1-2.5-9.2,2.7-2.5,3.8,7.4-1.4-6.1,2.5,2c.6.5.6-2.3.8-4.1l4.1,10Z" fill="#2c2e83" />
  <path d="M714.5,264.9l-32.1-42.7-.7.5,32.1,42.7.7-.5ZM737.3,296.6c-.7-1.6-2-2.4-1.5,0-1.7-2.6-4.5-4.5-6.5-7.4l-27-37.7-40.6-54.1c-2-2.6-4.1-5.3-5.1-8l5.8-4.5c-.1-.7-.8-3.2-.3-3.2h3.1c0,.1,2.4-2.7,2.4-2.7l2.7-2.9,5.8,7.7c.7.9,3,2.2,4.5,2.7l27,36.5,20.7,29.4,20.8,32.5.4,1.8c0,.4-1,.9-1.5.8-2.2-5.2-5-11.5-9.9-14.2,2.7,8.2,9.4,14,8.9,14.4l-2.6,2,.8,5.2-7.9,1.6Z" fill="#2c2e83" />
  <path d="M-23.4,161.7c.6,0,177.6-7.9,192.4-2.5l3.2,1.1c3.4,1.2,9.4,4.8,12.3,6.8,2.2,1.5,4.2,3.2,5.8,5.3l3.3,4c2.1,2.5,3.5,5.5,4.8,8.6l.7,1.8.7,1.8,1,2.6,1,3.7,1.1,4.5,1.2,5.5.2,1.9.7,7.5.9,4.9c.2,7,.7,13.9,0,20.9l-.8,9.8-2,15.7-1.5,9.2-2.1,12.2-.9,6-3.9,31.5-.8,7v3.4c0,0-1,9.7-1,9.7l-.2,3.4-1,10.2-1.1,14.2-.5,8.4-.8,17.2v3.4c0,0-.2,12.5-.2,12.5,0,1.7.2,3,.2,4.7v7.1s.4,5.7.4,5.7l.5,4.7.7,1.5c0,1.8,0,4.2.3,5.9l.5,2.5.7,4.7,3.2,13.8,2.1,7.1.8,2.4,3.8,9.2,1.5,3.2c.7,1.4,1.5,2.7,1.8,4.2.2.9.7,1.5,1.3,2.3l.8,1.1c3.6,5,7.4,9.7,11.7,14.2l2.2,2.3c5.8,6,12.2,10.9,19.9,14.5l6.3,2.5,3.4,1.1,2.8.8,7.6,1.7,5.7.5,1.1.2c5.4.2,10.9-.1,16.4-.9l3.4-.8,3.4-.6,2.5-.7,3.2-1,5.9-2,2.8-1,2.4-.8,2.3-.8c1.6-.6,3.1-1.5,4.6-2.3l5.1-2.5c2.4-1.2,4.8-2.4,6.9-3.9l3.4-2.5,4.8-3c.6-.4,1.3-.9,1.9-1.1,1.3-.4,2.2-1.1,3.2-2,2.2-2,4.7-3.5,7.3-5l.8-.8,2.4-1.7,5.5-4.3,6.2-5.2,3.7-2.7,24.8-21,8.5-7.3,9-7.6,28.5-23.8,16.8-12.7,16-10.8c6.4-4.3,13-7.8,19.8-11.2l2-1,4.3-2,3.7-1.6c1.9-.8,3.7-1.6,5.7-2.2l3.6-1.2,7.4-1.9,1.9-.5c.6-.1,1.3-.2,1.9-.2l6.2.2c5.7.2,8.7,2.1,12,6.9l2,2.9,1.5,4.2c0,.2.4.7.4,1,0,.6,0,1.9.2,2.5.3.8.6,1.7.7,2.4l.3,3.1.3,4v3.8c-.2,1.4,0,2.6.3,4v3.1c0,0-2.1,13-2.1,13-.3.5-.5,1.2-.5,1.7,0,1.1-.6,1.8-.8,2.9l-.6,3.5-.7,2.2-2.6,7.8-1.7,5.2-1.6,4.8-2.7,7.1-.8,2.4-2,5.9-1.1,2.4-1.4,2.9-2.5,6-.6,2.3-3.1,7.1-4.3,10.4-2.4,5.9-2.8,6.4-8.3,18.2-3.7,8.2-2,4.2-3.2,7.1-2.6,6.2-1.9,4.6-1.4,3.6-.7,2.2-.6,1.2-1.8,4.4c-2.1,5.3-2.8,10.8-3.4,16.3-.5,2.1-.6,4-.2,5.8-1,1.1-.4,2.2,0,3.1l.5,3.8v.4c.2.8.1,1.5-.2,2.5,0,0,.6,0,.7,0,0,.2.2.8.1,1l-.3,1.1,2.1,5.4,2.9,6.7,3.7,4.2,3.4,3.3c2.4,2.3,5.5,3.7,8.5,5.4,3.3,1.9,6.7,3.2,10.3,4.6,1.2.5,2.3.9,3.7,1.2l6.9,1.4,3.6.5c.7,0,1.5,0,1.8.2.2.2.3.3.3.3h.4c0,.1.4.3.4.3l.5.2,13.6,2,.5-.2.4-.2s.4,0,.4,0h.4c0,.1.4.3.4.3l.3.2.3.2c.4.2.4.2.8,0l.5-.2c.4-.2.3-.2.6.1l.3.3s.4,0,.4,0h.4c0-.1.4-.3.4-.3,0,0,.4,0,.4,0h.4c0,0,.4.2.4.2h.4s.4,0,.4,0h.4s.4,0,.4,0h.5c2.8-.2,6,1,5.2,1.5-.1,0,.5-.3.7-.4l.4-.2.2.5.2.4c0,.1,0,.3,0,.3l.5-.2.4-.2h.4c0,0,.4-.1.4-.1h.4s.3,0,.3,0h.3c0,0,2.6.7,2.6.7l.4.2c0,0,.5.2.6.2h5.8c0-.1.5,0,.5,0l.4.2.5.3,4.9-.7,1.3-.3c.3,0,.5.2.6.6h.4s.4,0,.4,0h.4s.5,0,.5,0h.4s.2-.2.2-.2l.3-.3s.2,0,.2,0l.5.2.4.2s.4,0,.4-.1l.4-.2.4-.2c0,0,.4,0,.4,0h.4c0,0,.3.2.3.2l.3.2.9-.4c.2,0,.6.9,1.2.6l.5-.2,3,.7v-.6c0,0,0-.4,0-.4l.6.2h.7c0,0,.9.1.9.1h.5c0,0,6.6.5,6.6.5,1.9.1,2.8-.5,3.7.8l.5-.3.5-.3,2.6.4h.5c0,0,.4-.1.4-.1h.4s.4,0,.4,0l.4.2c2.5,1.2,3.7.3,4.5.4h.8c0,.3.2.6.5.6.9-1.4,1-.8,1,0l3.9-.3h.4s.4,0,.4,0h.4s4.7.3,4.7.3h.5s8.2.1,8.2.1l-.3.5-.2.4c0,0,.3.3.4.3l.3-.2c.1-.2.5-.7.7-.7h2.6c0,.1,3.7.8,3.7.8h2.2c0,0,.9,0,.9,0h1c0-.1.7,0,.7,0l3.3-.3h.5s4.4.9,4.4.9c.3-.2,1-.6,1.2-.5l1,.8.4-.5s.2,0,.2,0h.4c0,0,.4,0,.4,0h.5c0-.1.4-.1.4-.1l.4.2.4.2h.4c0,.1.4.2.4.2h.4c0,0,.4.1.4.1h.4c0,0,.4.1.4.1h.4c0,0,.4,0,.4,0h.4s.4,0,.4,0h.4c0-.1.4-.2.4-.2h.4c0-.1.4-.1.4,0l.3.2.3.2s.2.1.2.1h.4s.4,0,.4,0h.4s.3,0,.3,0l.2-.2.3-.2s.3,0,.4,0h.5s.4,0,.4,0h.5c0-.1,4,.7,4,.7h.5c0,0,.4.1.4.1h.4s1.8-.1,1.8-.1c0,0,.5.2.5.2l.4.2s.4,0,.4,0h.5c0-.1.3-.2.3-.2.2.3,1.2,0,1.6.1l4,.7c2.1.3,2.5,0,3.3,0h.5c0,0,.4,0,.4,0l6.6.8h1.8c0,.1.4.3.4.3l1-.2c.4,0,1,0,1.6,0l2.2.2,2.1.4h1.5s5.8.2,5.8.2h1.9c.2.2.9.1,1.1.2.7.5,2.4.3,3.4.4l6.3.8,7.5.9,3.7.8h2.6c.7.3,1.2.5,1.8.5l3,.2,5.8.5,2.8.4,2.8.5,11.3,1.1h.4c0,0,12.1,1.5,12.1,1.5l3.9.3c0,0,.6-.2.6-.2l2.3.7h.9c0,0,1.1.2,1.1.2l2.7.3h1.5c0,.1,4.8.9,4.8.9l5.2.9,11.9,1.6,10.4,1.5,7.1,1.2,12.4,2.2,10,1.9,3.5.6.6.2,1.8-.6h.5c0,.1.4.2.4.2h.4c0,.1.4.2.4.2h.5c0,.1.4.2.4.2,0,0,.2-.1.2-.1l.3-.3s.3-.1.3-.1h.4c0,0,.4,0,.4,0l-.3-.5-.3-.5h.6c0-.1.4-.2.4-.2,0,0,0,0,0-.2v-.5s.4,0,.4,0h.5s.5,0,.5,0l-.5-.3-.3-.2-.3-.3-.3-.3-.4-.3-.4-.3-.4-.2-.4-.2-.4-.2-.4-.2h-.4c0-.1-.5-.3-.5-.3h-.5c0-.1-.4-.3-.4-.3h-.4c0-.1-.4-.2-.4-.2l-.4-.2-.5-.2-.4-.2-.4-.2v-.4c0,0,.5-.2.5-.2l.4-.2h.4s.4,0,.4,0h.4s.4,0,.4,0c.2,0,.4.3.5.3,0,0,.2,0,.5-.2v-.3c0,0-.6-.4-.6-.4v-.3s.5-.2.5-.2h.4c0-.1.4,0,.4,0h.4c0,.1.4.3.4.3h.4c0,0,.4.1.4.1h.4c0,0,.4.1.4.1h.4c0,0,.4.1.4.1h.5c0,0,.5.1.5.1v-.6c-.2-.6.5-1.6,1.4-1.8.1,0,.5-.1.6-.1.2,0,.2-1,.4-1h.9c.5-.1,1-.2.7-.2l-.6-.7c0,0,0-.3,0-.3l1-.3-2-1.4.9-1.5c-.9-.4-1.3-.5-2-1.2l3.9.5c-.9-1-1.4-1.9-1.3-3.1l-1.1-.5,1.3-.5c-.9-1-1.4-1.6-1.1-2.9-.5-.4-1.3-1.1-1.8-1.4-.9.2-1.7-.4-1.7-1.1,1.1-1.2.4-2.9-.6-3.3.3-1.2-.6-2.1-1.8-2.3l-6.2-1.6-29.9-4.8-36.9-5v.5c1.1.2,1.8.2,2.6.7l-10.3-1.1v-1c0,0-8.9-1-8.9-1l-3.4-.4-23.2-2.8-11.1-1.2-2.5.2c-.6-.3-1.2-.6-2-.3-1.3-.4-2.9-.6-4.3-.6l-3.7-.6-2.6-.3-12.3-1.2-3.8-.5-4.3-.6-5.2-.6-10.6-1-6.6-.4-11.9-1-8.3-.8-7.7-.4-7.5-.5-4-.3-4.9-.3-29.4-1.7-4.5-.2-12.8-.7-11.9-.8-2.8-.6-4-.4-8.5-1-3.4-.3-6.2-1-5.4-.8-7.9-1.4-7.9-2.1c-1.8-.5-4-.8-5.4-1.8l-4.4-3c-2.7-1.8-3.9-4.5-3.9-7.9,0-8.8,4.1-18.9,7.7-27.3l4.2-9.7,5.5-12.6,2.4-5.5c.3-.6.4-1.8.5-2.6v-.5c0-.3.7,0,.8-.5l.5-1.8.6-.2.3-.7,1-2.2,2-4.2c-.2-.7,0-1.5.6-2.1.2-1.7,1.3-2.6,2-4.1l2.7-5.5,2.2-4.8,1.9-4.3c.4-1,.7-1.8.9-2.8.4-1.9,1.4-3.8,2.2-5.7l.8-1.9,1-2.5c.8-.9,1.5-2.1,1.4-3.2l1.8-3.9.5-1.7,1.3-3.5,5-12.8,1.1-2.1c.5-1,.7-2.6,1.6-5.2l.7-2,.9-2.4,2.4-8.2,1.8-7,.9-4.1c3.2-14.6,5.7-27.9,4.5-42.6l-.9-6.2-1-4.9-.7-2.2-2-6.3-1.1-3.2c-.8-2.4-2-4.5-3.5-6.6-3.8-5.1-7.8-9.8-13.1-13.4l-1.5-1-4.8-2.2c-4.7-2.2-9.7-3.4-15-4.1l-7.9-.7-2.8.3-5.5.2-2.8.3c-10.4,1.2-22.8,5.3-32.6,9.9l-6.6,3.1c-8.1,3.8-15.7,8.1-23.2,13l-11.6,7.6-10.2,7.3-4.7,3.7-2.4,1.8-2.9,2.2-8.8,6.8-2.7,2.4-4.8,4-4.6,3.7-9.5,7.8-7.8,6.7-4.2,3.3-4.8,4.4-2.7,2.4-4.8,3.8-13.5,11.2-10.3,8.4-5.2,4.1-12.2,9.4-5.9,4.2-4,2.5-13,7.6-2.8,1.3-4.4,2c-5.8,2.1-11.7,3.8-17.7,4.5h-6.6s-2.5-.2-2.5-.2l-4.9-1.1-3.4-1.2-4.5-2.4-4.5-2.6-5.9-5-5-5.5c-5.3-5.8-8.7-13-11.7-20.3l-1.5-5-.8-3.1-.9-4.3-1.1-5.1-1.3-8.4-1.3-10.9v-3.1c0,0-.5-3.4-.5-3.4l-.2-3.3-.2-4-.2-4.4v-3.8s0-2.9,0-2.9l.2-3,.4-2.4-.5-.6c-.2-2.6.8-4.5.8-6.1v-.7s0-.7,0-.7v-4.2c0,0,.5-1.6.5-1.6-.7-1-.6-1.9.1-2.9l.5-6,.5-5.9.3-3.4.6-5.1.8-7.6.3-3.2.3-3.6-.2-1v-1.5c.1,0,.8-2.4.8-2.4l-.4-.3.5-1,.2-1.1.4-3.9.2-1.5.3-2.4.2-2.3c0,0-.2-.4-.2-.5v-1.1c.1-.2.2-.6.4-.8l1.7-13.7,1.5-11.1.5-3.6.4-2.9.4-2.8.5-2.8.5-4.9,1-5.1.5-3,.6-4.9,1.6-10.3.8-8.3.5-8,.6-4.2.4-9.7v-3.7c-.3-3.8,0-7.5-.5-11.3l-.3-3.3-.7-5.7-.7-3.9-1.7-9c-1.3-6.8-6.2-20.4-9.4-26.9-2.7-5.6-6.7-12.1-11.4-15.8-5.1-4-9.9-8.1-15.7-11.2-2.6-1.4-5.4-2.3-8.1-3.4-2.7-1.2-5.4-1.7-8.3-2.2l-7.6-2.1-4.5-.6c-3.3-.5-6.6-.9-10-.6,0,0,17,3.3-3.6.3-20.6-3-185,2.9-185,2.9" fill="#ea504c" />
  <path d="M257.6,501.5l6.8-25.3,65.8,17.6-6.8,25.3-65.8-17.6ZM253.5,551.2l6.1-22.7,57.2,15.3-6.1,22.7-57.2-15.3ZM231.2,599.9l6.8-25.3,65.8,17.6-6.8,25.3-65.8-17.6ZM289.3,615.5l33.1-123.7,30.4,8.1-33.1,123.7-30.4-8.1ZM365.4,531l6.9-25.9,91.4,24.5-6.9,25.9-91.4-24.5ZM369.7,637l33.1-123.7,30.4,8.1-33.1,123.7-30.4-8.1ZM535.2,681.3l23.2-86.6h-.4c0,0-69.7,74-69.7,74l-38.2-10.2,33.1-123.7,30,8-22.4,83.8h.4c0,.1,66.5-71.9,66.5-71.9l40.7,10.9-33.1,123.7-30-8ZM608.3,677.5l5.7-21.4,78.9,21.1-5.7,21.4-78.9-21.1ZM672.4,718.1l-1.4-106.6-1.1-.3-54.3,91.7-32.8-8.8,74.4-112.6,39.4,10.5,8.3,134.8-32.4-8.7ZM794.7,750.9l12.5-46.5-10.7-2.9c-5-1.3-9.3-1.8-12.9-1.4-3.6.4-6.8,1.7-9.6,4-2.8,2.3-5.4,5.5-7.7,9.7l-14.5,25.6-33.7-9,18.2-28.1c2.3-3.5,4.8-7,7.7-10.3,2.8-3.3,6.2-6.1,10.1-8.2,3.9-2.2,8.6-3.4,14-3.6,5.4-.2,11.9,1,19.3,3.7l.4-1.5c-6.4-4.5-11.9-9.6-16.4-15.1-4.5-5.6-8.2-11.5-11.1-17.9-2.8-6.4-4.8-13.1-5.9-20.2-1.1-7.1-1.5-14.4-1.1-21.9l34.1,9.1c-.3,5.8-.2,11.7.5,17.7.7,6,2,11.8,4,17.4,2,5.6,4.8,10.9,8.3,15.8,3.6,4.9,8.1,9.2,13.5,12.8l14.2-52.8,30.4,8.1-33.1,123.7-30.4-8.1Z" fill="#000" stroke="#000" stroke-width="7" stroke-miterlimit="10" />
  <path d="M257.6,501.5l6.8-25.3,65.8,17.6-6.8,25.3-65.8-17.6ZM253.5,551.2l6.1-22.7,57.2,15.3-6.1,22.7-57.2-15.3ZM231.2,599.9l6.8-25.3,65.8,17.6-6.8,25.3-65.8-17.6ZM289.3,615.5l33.1-123.7,30.4,8.1-33.1,123.7-30.4-8.1ZM365.4,531l6.9-25.9,91.4,24.5-6.9,25.9-91.4-24.5ZM369.7,637l33.1-123.7,30.4,8.1-33.1,123.7-30.4-8.1ZM535.2,681.3l23.2-86.6h-.4c0,0-69.7,74-69.7,74l-38.2-10.2,33.1-123.7,30,8-22.4,83.8h.4c0,.1,66.5-71.9,66.5-71.9l40.7,10.9-33.1,123.7-30-8ZM608.3,677.5l5.7-21.4,78.9,21.1-5.7,21.4-78.9-21.1ZM672.4,718.1l-1.4-106.6-1.1-.3-54.3,91.7-32.8-8.8,74.4-112.6,39.4,10.5,8.3,134.8-32.4-8.7ZM794.7,750.9l12.5-46.5-10.7-2.9c-5-1.3-9.3-1.8-12.9-1.4-3.6.4-6.8,1.7-9.6,4-2.8,2.3-5.4,5.5-7.7,9.7l-14.5,25.6-33.7-9,18.2-28.1c2.3-3.5,4.8-7,7.7-10.3,2.8-3.3,6.2-6.1,10.1-8.2,3.9-2.2,8.6-3.4,14-3.6,5.4-.2,11.9,1,19.3,3.7l.4-1.5c-6.4-4.5-11.9-9.6-16.4-15.1-4.5-5.6-8.2-11.5-11.1-17.9-2.8-6.4-4.8-13.1-5.9-20.2-1.1-7.1-1.5-14.4-1.1-21.9l34.1,9.1c-.3,5.8-.2,11.7.5,17.7.7,6,2,11.8,4,17.4,2,5.6,4.8,10.9,8.3,15.8,3.6,4.9,8.1,9.2,13.5,12.8l14.2-52.8,30.4,8.1-33.1,123.7-30.4-8.1Z" fill="#000" stroke="#000" stroke-miterlimit="3.7" />
  <g clip-path="url(#motto-d-clip-a)">
    <path d="M-23.8,161.5c.6,0,177.6-7.9,192.4-2.5l3.2,1.1c3.4,1.2,9.4,4.8,12.3,6.8,2.2,1.5,4.2,3.2,5.8,5.3l3.3,4c2.1,2.5,3.5,5.5,4.8,8.6l.7,1.8.7,1.8,1,2.6,1,3.7,1.1,4.5,1.2,5.5.2,1.9.7,7.5.9,4.9c.2,7,.7,13.9,0,20.9l-.8,9.8-2,15.7-1.5,9.2-2.1,12.2-.9,6-3.9,31.5-.8,7v3.4c0,0-1,9.7-1,9.7l-.2,3.4-1,10.2-1.1,14.2-.5,8.4-.8,17.2v3.4c0,0-.2,12.5-.2,12.5,0,1.7.2,3,.2,4.7v7.1s.4,5.7.4,5.7l.5,4.7.7,1.5c0,1.8,0,4.2.3,5.9l.5,2.5.7,4.7,3.2,13.8,2.1,7.1.8,2.4,3.8,9.2,1.5,3.2c.7,1.4,1.5,2.7,1.8,4.2.2.9.7,1.5,1.3,2.3l.8,1.1c3.6,5,7.4,9.7,11.7,14.2l2.2,2.3c5.8,6,12.2,10.9,19.9,14.5l6.3,2.5,3.4,1.1,2.8.8,7.6,1.7,5.7.5,1.1.2c5.4.2,10.9-.1,16.4-.9l3.4-.8,3.4-.6,2.5-.7,3.2-1,5.9-2,2.8-1,2.4-.8,2.3-.8c1.6-.6,3.1-1.5,4.6-2.3l5.1-2.5c2.4-1.2,4.8-2.4,6.9-3.9l3.4-2.5,4.8-3c.6-.4,1.3-.9,1.9-1.1,1.3-.4,2.2-1.1,3.2-2,2.2-2,4.7-3.5,7.3-5l.8-.8,2.4-1.7,5.5-4.3,6.2-5.2,3.7-2.7,24.8-21,8.5-7.3,9-7.6,28.5-23.8,16.8-12.7,16-10.8c6.4-4.3,13-7.8,19.8-11.2l2-1,4.3-2,3.7-1.6c1.9-.8,3.7-1.6,5.7-2.2l3.6-1.2,7.4-1.9,1.9-.5c.6-.1,1.3-.2,1.9-.2l6.2.2c5.7.2,8.7,2.1,12,6.9l2,2.9,1.5,4.2c0,.2.4.7.4,1,0,.6,0,1.9.2,2.5.3.8.6,1.7.7,2.4l.3,3.1.3,4v3.8c-.2,1.4,0,2.6.3,4v3.1c0,0-2.1,13-2.1,13-.3.5-.5,1.2-.5,1.7,0,1.1-.6,1.8-.8,2.9l-.6,3.5-.7,2.2-2.6,7.8-1.7,5.2-1.6,4.8-2.7,7.1-.8,2.4-2,5.9-1.1,2.4-1.4,2.9-2.5,6-.6,2.3-3.1,7.1-4.3,10.4-2.4,5.9-2.8,6.4-8.3,18.2-3.7,8.2-2,4.2-3.2,7.1-2.6,6.2-1.9,4.6-1.4,3.6-.7,2.2-.6,1.2-1.8,4.4c-2.1,5.3-2.8,10.8-3.4,16.3-.5,2.1-.6,4-.2,5.8-1,1.1-.4,2.2,0,3.1l.5,3.8v.4c.2.8.1,1.5-.2,2.5,0,0,.6,0,.7,0,0,.2.2.8.1,1l-.3,1.1,2.1,5.4,2.9,6.7,3.7,4.2,3.4,3.3c2.4,2.3,5.5,3.7,8.5,5.4,3.3,1.9,6.7,3.2,10.3,4.6,1.2.5,2.3.9,3.7,1.2l6.9,1.4,3.6.5c.7,0,1.5,0,1.8.2.2.2.3.3.3.3h.4c0,.1.4.3.4.3l.5.2,13.6,2,.5-.2.4-.2s.4,0,.4,0h.4c0,.1.4.3.4.3l.3.2.3.2c.4.2.4.2.8,0l.5-.2c.4-.2.3-.2.6.1l.3.3s.4,0,.4,0h.4c0-.1.4-.3.4-.3,0,0,.4,0,.4,0h.4c0,0,.4.2.4.2h.4s.4,0,.4,0h.4s.4,0,.4,0h.5c2.8-.2,6,1,5.2,1.5-.1,0,.5-.3.7-.4l.4-.2.2.5.2.4c0,.1,0,.3,0,.3l.5-.2.4-.2h.4c0,0,.4-.1.4-.1h.4s.3,0,.3,0h.3c0,0,2.6.7,2.6.7l.4.2c0,0,.5.2.6.2h5.8c0-.1.5,0,.5,0l.4.2.5.3,4.9-.7,1.3-.3c.3,0,.5.2.6.6h.4s.4,0,.4,0h.4s.5,0,.5,0h.4s.2-.2.2-.2l.3-.3s.2,0,.2,0l.5.2.4.2s.4,0,.4-.1l.4-.2.4-.2c0,0,.4,0,.4,0h.4c0,0,.3.2.3.2l.3.2.9-.4c.2,0,.6.9,1.2.6l.5-.2,3,.7v-.6c0,0,0-.4,0-.4l.6.2h.7c0,0,.9.1.9.1h.5c0,0,6.6.5,6.6.5,1.9.1,2.8-.5,3.7.8l.5-.3.5-.3,2.6.4h.5c0,0,.4-.1.4-.1h.4s.4,0,.4,0l.4.2c2.5,1.2,3.7.3,4.5.4h.8c0,.3.2.6.5.6.9-1.4,1-.8,1,0l3.9-.3h.4s.4,0,.4,0h.4s4.7.3,4.7.3h.5s8.2.1,8.2.1l-.3.5-.2.4c0,0,.3.3.4.3l.3-.2c.1-.2.5-.7.7-.7h2.6c0,.1,3.7.8,3.7.8h2.2c0,0,.9,0,.9,0h1c0-.1.7,0,.7,0l3.3-.3h.5s4.4.9,4.4.9c.3-.2,1-.6,1.2-.5l1,.8.4-.5s.2,0,.2,0h.4c0,0,.4,0,.4,0h.5c0-.1.4-.1.4-.1l.4.2.4.2h.4c0,.1.4.2.4.2h.4c0,0,.4.1.4.1h.4c0,0,.4.1.4.1h.4c0,0,.4,0,.4,0h.4s.4,0,.4,0h.4c0-.1.4-.2.4-.2h.4c0-.1.4-.1.4,0l.3.2.3.2s.2.1.2.1h.4s.4,0,.4,0h.4s.3,0,.3,0l.2-.2.3-.2s.3,0,.4,0h.5s.4,0,.4,0h.5c0-.1,4,.7,4,.7h.5c0,0,.4.1.4.1h.4s1.8-.1,1.8-.1c0,0,.5.2.5.2l.4.2s.4,0,.4,0h.5c0-.1.3-.2.3-.2.2.3,1.2,0,1.6.1l4,.7c2.1.3,2.5,0,3.3,0h.5c0,0,.4,0,.4,0l6.6.8h1.8c0,.1.4.3.4.3l1-.2c.4,0,1,0,1.6,0l2.2.2,2.1.4h1.5s5.8.2,5.8.2h1.9c.2.2.9.1,1.1.2.7.5,2.4.3,3.4.4l6.3.8,7.5.9,3.7.8h2.6c.7.3,1.2.5,1.8.5l3,.2,5.8.5,2.8.4,2.8.5,11.3,1.1h.4c0,0,12.1,1.5,12.1,1.5l3.9.3c0,0,.6-.2.6-.2l2.3.7h.9c0,0,1.1.2,1.1.2l2.7.3h1.5c0,.1,4.8.9,4.8.9l5.2.9,11.9,1.6,10.4,1.5,7.1,1.2,12.4,2.2,10,1.9,3.5.6.6.2,1.8-.6h.5c0,.1.4.2.4.2h.4c0,.1.4.2.4.2h.5c0,.1.4.2.4.2,0,0,.2-.1.2-.1l.3-.3s.3-.1.3-.1h.4c0,0,.4,0,.4,0l-.3-.5-.3-.5h.6c0-.1.4-.2.4-.2,0,0,0,0,0-.2v-.5s.4,0,.4,0h.5s.5,0,.5,0l-.5-.3-.3-.2-.3-.3-.3-.3-.4-.3-.4-.3-.4-.2-.4-.2-.4-.2-.4-.2h-.4c0-.1-.5-.3-.5-.3h-.5c0-.1-.4-.3-.4-.3h-.4c0-.1-.4-.2-.4-.2l-.4-.2-.5-.2-.4-.2-.4-.2v-.4c0,0,.5-.2.5-.2l.4-.2h.4s.4,0,.4,0h.4s.4,0,.4,0c.2,0,.4.3.5.3,0,0,.2,0,.5-.2v-.3c0,0-.6-.4-.6-.4v-.3s.5-.2.5-.2h.4c0-.1.4,0,.4,0h.4c0,.1.4.3.4.3h.4c0,0,.4.1.4.1h.4c0,0,.4.1.4.1h.4c0,0,.4.1.4.1h.5c0,0,.5.1.5.1v-.6c-.2-.6.5-1.6,1.4-1.8.1,0,.5-.1.6-.1.2,0,.2-1,.4-1h.9c.5-.1,1-.2.7-.2l-.6-.7c0,0,0-.3,0-.3l1-.3-2-1.4.9-1.5c-.9-.4-1.3-.5-2-1.2l3.9.5c-.9-1-1.4-1.9-1.3-3.1l-1.1-.5,1.3-.5c-.9-1-1.4-1.6-1.1-2.9-.5-.4-1.3-1.1-1.8-1.4-.9.2-1.7-.4-1.7-1.1,1.1-1.2.4-2.9-.6-3.3.3-1.2-.6-2.1-1.8-2.3l-6.2-1.6-29.9-4.8-36.9-5v.5c1.1.2,1.8.2,2.6.7l-10.3-1.1v-1c0,0-8.9-1-8.9-1l-3.4-.4-23.2-2.8-11.1-1.2-2.5.2c-.6-.3-1.2-.6-2-.3-1.3-.4-2.9-.6-4.3-.6l-3.7-.6-2.6-.3-12.3-1.2-3.8-.5-4.3-.6-5.2-.6-10.6-1-6.6-.4-11.9-1-8.3-.8-7.7-.4-7.5-.5-4-.3-4.9-.3-29.4-1.7-4.5-.2-12.8-.7-11.9-.8-2.8-.6-4-.4-8.5-1-3.4-.3-6.2-1-5.4-.8-7.9-1.4-7.9-2.1c-1.8-.5-4-.8-5.4-1.8l-4.4-3c-2.7-1.8-3.9-4.5-3.9-7.9,0-8.8,4.1-18.9,7.7-27.3l4.2-9.7,5.5-12.6,2.4-5.5c.3-.6.4-1.8.5-2.6v-.5c0-.3.7,0,.8-.5l.5-1.8.6-.2.3-.7,1-2.2,2-4.2c-.2-.7,0-1.5.6-2.1.2-1.7,1.3-2.6,2-4.1l2.7-5.5,2.2-4.8,1.9-4.3c.4-1,.7-1.8.9-2.8.4-1.9,1.4-3.8,2.2-5.7l.8-1.9,1-2.5c.8-.9,1.5-2.1,1.4-3.2l1.8-3.9.5-1.7,1.3-3.5,5-12.8,1.1-2.1c.5-1,.7-2.6,1.6-5.2l.7-2,.9-2.4,2.4-8.2,1.8-7,.9-4.1c3.2-14.6,5.7-27.9,4.5-42.6l-.9-6.2-1-4.9-.7-2.2-2-6.3-1.1-3.2c-.8-2.4-2-4.5-3.5-6.6-3.8-5.1-7.8-9.8-13.1-13.4l-1.5-1-4.8-2.2c-4.7-2.2-9.7-3.4-15-4.1l-7.9-.7-2.8.3-5.5.2-2.8.3c-10.4,1.2-22.8,5.3-32.6,9.9l-6.6,3.1c-8.1,3.8-15.7,8.1-23.2,13l-11.6,7.6-10.2,7.3-4.7,3.7-2.4,1.8-2.9,2.2-8.8,6.8-2.7,2.4-4.8,4-4.6,3.7-9.5,7.8-7.8,6.7-4.2,3.3-4.8,4.4-2.7,2.4-4.8,3.8-13.5,11.2-10.3,8.4-5.2,4.1-12.2,9.4-5.9,4.2-4,2.5-13,7.6-2.8,1.3-4.4,2c-5.8,2.1-11.7,3.8-17.7,4.5h-6.6s-2.5-.2-2.5-.2l-4.9-1.1-3.4-1.2-4.5-2.4-4.5-2.6-5.9-5-5-5.5c-5.3-5.8-8.7-13-11.7-20.3l-1.5-5-.8-3.1-.9-4.3-1.1-5.1-1.3-8.4-1.3-10.9v-3.1c0,0-.5-3.4-.5-3.4l-.2-3.3-.2-4-.2-4.4v-3.8s0-2.9,0-2.9l.2-3,.4-2.4-.5-.6c-.2-2.6.8-4.5.8-6.1v-.7s0-.7,0-.7v-4.2c0,0,.5-1.6.5-1.6-.7-1-.6-1.9.1-2.9l.5-6,.5-5.9.3-3.4.6-5.1.8-7.6.3-3.2.3-3.6-.2-1v-1.5c.1,0,.8-2.4.8-2.4l-.4-.3.5-1,.2-1.1.4-3.9.2-1.5.3-2.4.2-2.3c0,0-.2-.4-.2-.5v-1.1c.1-.2.2-.6.4-.8l1.7-13.7,1.5-11.1.5-3.6.4-2.9.4-2.8.5-2.8.5-4.9,1-5.1.5-3,.6-4.9,1.6-10.3.8-8.3.5-8,.6-4.2.4-9.7v-3.7c-.3-3.8,0-7.5-.5-11.3l-.3-3.3-.7-5.7-.7-3.9-1.7-9c-1.3-6.8-6.2-20.4-9.4-26.9-2.7-5.6-6.7-12.1-11.4-15.8-5.1-4-9.9-8.1-15.7-11.2-2.6-1.4-5.4-2.3-8.1-3.4-2.7-1.2-5.4-1.7-8.3-2.2l-7.6-2.1-4.5-.6c-3.3-.5-6.6-.9-10-.6,0,0,17,3.3-3.6.3-20.6-3-185,2.9-185,2.9" fill="#ea504c" />
  </g>
  <g clip-path="url(#motto-d-clip-b)">
    <path d="M-23.4,161.7c.6,0,177.6-7.9,192.4-2.5l3.2,1.1c3.4,1.2,9.4,4.8,12.3,6.8,2.2,1.5,4.2,3.2,5.8,5.3l3.3,4c2.1,2.5,3.5,5.5,4.8,8.6l.7,1.8.7,1.8,1,2.6,1,3.7,1.1,4.5,1.2,5.5.2,1.9.7,7.5.9,4.9c.2,7,.7,13.9,0,20.9l-.8,9.8-2,15.7-1.5,9.2-2.1,12.2-.9,6-3.9,31.5-.8,7v3.4c0,0-1,9.7-1,9.7l-.2,3.4-1,10.2-1.1,14.2-.5,8.4-.8,17.2v3.4c0,0-.2,12.5-.2,12.5,0,1.7.2,3,.2,4.7v7.1s.4,5.7.4,5.7l.5,4.7.7,1.5c0,1.8,0,4.2.3,5.9l.5,2.5.7,4.7,3.2,13.8,2.1,7.1.8,2.4,3.8,9.2,1.5,3.2c.7,1.4,1.5,2.7,1.8,4.2.2.9.7,1.5,1.3,2.3l.8,1.1c3.6,5,7.4,9.7,11.7,14.2l2.2,2.3c5.8,6,12.2,10.9,19.9,14.5l6.3,2.5,3.4,1.1,2.8.8,7.6,1.7,5.7.5,1.1.2c5.4.2,10.9-.1,16.4-.9l3.4-.8,3.4-.6,2.5-.7,3.2-1,5.9-2,2.8-1,2.4-.8,2.3-.8c1.6-.6,3.1-1.5,4.6-2.3l5.1-2.5c2.4-1.2,4.8-2.4,6.9-3.9l3.4-2.5,4.8-3c.6-.4,1.3-.9,1.9-1.1,1.3-.4,2.2-1.1,3.2-2,2.2-2,4.7-3.5,7.3-5l.8-.8,2.4-1.7,5.5-4.3,6.2-5.2,3.7-2.7,24.8-21,8.5-7.3,9-7.6,28.5-23.8,16.8-12.7,16-10.8c6.4-4.3,13-7.8,19.8-11.2l2-1,4.3-2,3.7-1.6c1.9-.8,3.7-1.6,5.7-2.2l3.6-1.2,7.4-1.9,1.9-.5c.6-.1,1.3-.2,1.9-.2l6.2.2c5.7.2,8.7,2.1,12,6.9l2,2.9,1.5,4.2c0,.2.4.7.4,1,0,.6,0,1.9.2,2.5.3.8.6,1.7.7,2.4l.3,3.1.3,4v3.8c-.2,1.4,0,2.6.3,4v3.1c0,0-2.1,13-2.1,13-.3.5-.5,1.2-.5,1.7,0,1.1-.6,1.8-.8,2.9l-.6,3.5-.7,2.2-2.6,7.8-1.7,5.2-1.6,4.8-2.7,7.1-.8,2.4-2,5.9-1.1,2.4-1.4,2.9-2.5,6-.6,2.3-3.1,7.1-4.3,10.4-2.4,5.9-2.8,6.4-8.3,18.2-3.7,8.2-2,4.2-3.2,7.1-2.6,6.2-1.9,4.6-1.4,3.6-.7,2.2-.6,1.2-1.8,4.4c-2.1,5.3-2.8,10.8-3.4,16.3-.5,2.1-.6,4-.2,5.8-1,1.1-.4,2.2,0,3.1l.5,3.8v.4c.2.8.1,1.5-.2,2.5,0,0,.6,0,.7,0,0,.2.2.8.1,1l-.3,1.1,2.1,5.4,2.9,6.7,3.7,4.2,3.4,3.3c2.4,2.3,5.5,3.7,8.5,5.4,3.3,1.9,6.7,3.2,10.3,4.6,1.2.5,2.3.9,3.7,1.2l6.9,1.4,3.6.5c.7,0,1.5,0,1.8.2.2.2.3.3.3.3h.4c0,.1.4.3.4.3l.5.2,13.6,2,.5-.2.4-.2s.4,0,.4,0h.4c0,.1.4.3.4.3l.3.2.3.2c.4.2.4.2.8,0l.5-.2c.4-.2.3-.2.6.1l.3.3s.4,0,.4,0h.4c0-.1.4-.3.4-.3,0,0,.4,0,.4,0h.4c0,0,.4.2.4.2h.4s.4,0,.4,0h.4s.4,0,.4,0h.5c2.8-.2,6,1,5.2,1.5-.1,0,.5-.3.7-.4l.4-.2.2.5.2.4c0,.1,0,.3,0,.3l.5-.2.4-.2h.4c0,0,.4-.1.4-.1h.4s.3,0,.3,0h.3c0,0,2.6.7,2.6.7l.4.2c0,0,.5.2.6.2h5.8c0-.1.5,0,.5,0l.4.2.5.3,4.9-.7,1.3-.3c.3,0,.5.2.6.6h.4s.4,0,.4,0h.4s.5,0,.5,0h.4s.2-.2.2-.2l.3-.3s.2,0,.2,0l.5.2.4.2s.4,0,.4-.1l.4-.2.4-.2c0,0,.4,0,.4,0h.4c0,0,.3.2.3.2l.3.2.9-.4c.2,0,.6.9,1.2.6l.5-.2,3,.7v-.6c0,0,0-.4,0-.4l.6.2h.7c0,0,.9.1.9.1h.5c0,0,6.6.5,6.6.5,1.9.1,2.8-.5,3.7.8l.5-.3.5-.3,2.6.4h.5c0,0,.4-.1.4-.1h.4s.4,0,.4,0l.4.2c2.5,1.2,3.7.3,4.5.4h.8c0,.3.2.6.5.6.9-1.4,1-.8,1,0l3.9-.3h.4s.4,0,.4,0h.4s4.7.3,4.7.3h.5s8.2.1,8.2.1l-.3.5-.2.4c0,0,.3.3.4.3l.3-.2c.1-.2.5-.7.7-.7h2.6c0,.1,3.7.8,3.7.8h2.2c0,0,.9,0,.9,0h1c0-.1.7,0,.7,0l3.3-.3h.5s4.4.9,4.4.9c.3-.2,1-.6,1.2-.5l1,.8.4-.5s.2,0,.2,0h.4c0,0,.4,0,.4,0h.5c0-.1.4-.1.4-.1l.4.2.4.2h.4c0,.1.4.2.4.2h.4c0,0,.4.1.4.1h.4c0,0,.4.1.4.1h.4c0,0,.4,0,.4,0h.4s.4,0,.4,0h.4c0-.1.4-.2.4-.2h.4c0-.1.4-.1.4,0l.3.2.3.2s.2.1.2.1h.4s.4,0,.4,0h.4s.3,0,.3,0l.2-.2.3-.2s.3,0,.4,0h.5s.4,0,.4,0h.5c0-.1,4,.7,4,.7h.5c0,0,.4.1.4.1h.4s1.8-.1,1.8-.1c0,0,.5.2.5.2l.4.2s.4,0,.4,0h.5c0-.1.3-.2.3-.2.2.3,1.2,0,1.6.1l4,.7c2.1.3,2.5,0,3.3,0h.5c0,0,.4,0,.4,0l6.6.8h1.8c0,.1.4.3.4.3l1-.2c.4,0,1,0,1.6,0l2.2.2,2.1.4h1.5s5.8.2,5.8.2h1.9c.2.2.9.1,1.1.2.7.5,2.4.3,3.4.4l6.3.8,7.5.9,3.7.8h2.6c.7.3,1.2.5,1.8.5l3,.2,5.8.5,2.8.4,2.8.5,11.3,1.1h.4c0,0,12.1,1.5,12.1,1.5l3.9.3c0,0,.6-.2.6-.2l2.3.7h.9c0,0,1.1.2,1.1.2l2.7.3h1.5c0,.1,4.8.9,4.8.9l5.2.9,11.9,1.6,10.4,1.5,7.1,1.2,12.4,2.2,10,1.9,3.5.6.6.2,1.8-.6h.5c0,.1.4.2.4.2h.4c0,.1.4.2.4.2h.5c0,.1.4.2.4.2,0,0,.2-.1.2-.1l.3-.3s.3-.1.3-.1h.4c0,0,.4,0,.4,0l-.3-.5-.3-.5h.6c0-.1.4-.2.4-.2,0,0,0,0,0-.2v-.5s.4,0,.4,0h.5s.5,0,.5,0l-.5-.3-.3-.2-.3-.3-.3-.3-.4-.3-.4-.3-.4-.2-.4-.2-.4-.2-.4-.2h-.4c0-.1-.5-.3-.5-.3h-.5c0-.1-.4-.3-.4-.3h-.4c0-.1-.4-.2-.4-.2l-.4-.2-.5-.2-.4-.2-.4-.2v-.4c0,0,.5-.2.5-.2l.4-.2h.4s.4,0,.4,0h.4s.4,0,.4,0c.2,0,.4.3.5.3,0,0,.2,0,.5-.2v-.3c0,0-.6-.4-.6-.4v-.3s.5-.2.5-.2h.4c0-.1.4,0,.4,0h.4c0,.1.4.3.4.3h.4c0,0,.4.1.4.1h.4c0,0,.4.1.4.1h.4c0,0,.4.1.4.1h.5c0,0,.5.1.5.1v-.6c-.2-.6.5-1.6,1.4-1.8.1,0,.5-.1.6-.1.2,0,.2-1,.4-1h.9c.5-.1,1-.2.7-.2l-.6-.7c0,0,0-.3,0-.3l1-.3-2-1.4.9-1.5c-.9-.4-1.3-.5-2-1.2l3.9.5c-.9-1-1.4-1.9-1.3-3.1l-1.1-.5,1.3-.5c-.9-1-1.4-1.6-1.1-2.9-.5-.4-1.3-1.1-1.8-1.4-.9.2-1.7-.4-1.7-1.1,1.1-1.2.4-2.9-.6-3.3.3-1.2-.6-2.1-1.8-2.3l-6.2-1.6-29.9-4.8-36.9-5v.5c1.1.2,1.8.2,2.6.7l-10.3-1.1v-1c0,0-8.9-1-8.9-1l-3.4-.4-23.2-2.8-11.1-1.2-2.5.2c-.6-.3-1.2-.6-2-.3-1.3-.4-2.9-.6-4.3-.6l-3.7-.6-2.6-.3-12.3-1.2-3.8-.5-4.3-.6-5.2-.6-10.6-1-6.6-.4-11.9-1-8.3-.8-7.7-.4-7.5-.5-4-.3-4.9-.3-29.4-1.7-4.5-.2-12.8-.7-11.9-.8-2.8-.6-4-.4-8.5-1-3.4-.3-6.2-1-5.4-.8-7.9-1.4-7.9-2.1c-1.8-.5-4-.8-5.4-1.8l-4.4-3c-2.7-1.8-3.9-4.5-3.9-7.9,0-8.8,4.1-18.9,7.7-27.3l4.2-9.7,5.5-12.6,2.4-5.5c.3-.6.4-1.8.5-2.6v-.5c0-.3.7,0,.8-.5l.5-1.8.6-.2.3-.7,1-2.2,2-4.2c-.2-.7,0-1.5.6-2.1.2-1.7,1.3-2.6,2-4.1l2.7-5.5,2.2-4.8,1.9-4.3c.4-1,.7-1.8.9-2.8.4-1.9,1.4-3.8,2.2-5.7l.8-1.9,1-2.5c.8-.9,1.5-2.1,1.4-3.2l1.8-3.9.5-1.7,1.3-3.5,5-12.8,1.1-2.1c.5-1,.7-2.6,1.6-5.2l.7-2,.9-2.4,2.4-8.2,1.8-7,.9-4.1c3.2-14.6,5.7-27.9,4.5-42.6l-.9-6.2-1-4.9-.7-2.2-2-6.3-1.1-3.2c-.8-2.4-2-4.5-3.5-6.6-3.8-5.1-7.8-9.8-13.1-13.4l-1.5-1-4.8-2.2c-4.7-2.2-9.7-3.4-15-4.1l-7.9-.7-2.8.3-5.5.2-2.8.3c-10.4,1.2-22.8,5.3-32.6,9.9l-6.6,3.1c-8.1,3.8-15.7,8.1-23.2,13l-11.6,7.6-10.2,7.3-4.7,3.7-2.4,1.8-2.9,2.2-8.8,6.8-2.7,2.4-4.8,4-4.6,3.7-9.5,7.8-7.8,6.7-4.2,3.3-4.8,4.4-2.7,2.4-4.8,3.8-13.5,11.2-10.3,8.4-5.2,4.1-12.2,9.4-5.9,4.2-4,2.5-13,7.6-2.8,1.3-4.4,2c-5.8,2.1-11.7,3.8-17.7,4.5h-6.6s-2.5-.2-2.5-.2l-4.9-1.1-3.4-1.2-4.5-2.4-4.5-2.6-5.9-5-5-5.5c-5.3-5.8-8.7-13-11.7-20.3l-1.5-5-.8-3.1-.9-4.3-1.1-5.1-1.3-8.4-1.3-10.9v-3.1c0,0-.5-3.4-.5-3.4l-.2-3.3-.2-4-.2-4.4v-3.8s0-2.9,0-2.9l.2-3,.4-2.4-.5-.6c-.2-2.6.8-4.5.8-6.1v-.7s0-.7,0-.7v-4.2c0,0,.5-1.6.5-1.6-.7-1-.6-1.9.1-2.9l.5-6,.5-5.9.3-3.4.6-5.1.8-7.6.3-3.2.3-3.6-.2-1v-1.5c.1,0,.8-2.4.8-2.4l-.4-.3.5-1,.2-1.1.4-3.9.2-1.5.3-2.4.2-2.3c0,0-.2-.4-.2-.5v-1.1c.1-.2.2-.6.4-.8l1.7-13.7,1.5-11.1.5-3.6.4-2.9.4-2.8.5-2.8.5-4.9,1-5.1.5-3,.6-4.9,1.6-10.3.8-8.3.5-8,.6-4.2.4-9.7v-3.7c-.3-3.8,0-7.5-.5-11.3l-.3-3.3-.7-5.7-.7-3.9-1.7-9c-1.3-6.8-6.2-20.4-9.4-26.9-2.7-5.6-6.7-12.1-11.4-15.8-5.1-4-9.9-8.1-15.7-11.2-2.6-1.4-5.4-2.3-8.1-3.4-2.7-1.2-5.4-1.7-8.3-2.2l-7.6-2.1-4.5-.6c-3.3-.5-6.6-.9-10-.6,0,0,17,3.3-3.6.3-20.6-3-185,2.9-185,2.9" fill="#ea504c" />
  </g>
  <path d="M774.6,432.6l11.3,9.7c4.2,3.6,6.6,7.2,7.2,10.8.6,3.6-.7,7.1-3.8,10.8-2.8,3.3-6.1,4.8-9.7,4.5-3.6-.3-7.5-2.2-11.8-5.9l-10.9-9.3,17.6-20.6ZM722.3,493.8l22.4-26.2,9.5,8.1c2.9,2.5,4.9,4.9,6.1,7.2,1.1,2.3,1.5,4.6,1,7.1-.4,2.4-1.5,5.2-3.3,8.2l-10,17.6,20.7,17.7,9.8-19.6c1.9-3.6,3.2-7.3,4.1-11,.9-3.7.7-7.6-.6-11.6-1.3-4-4.2-8.2-9-12.7l.8-.9c4.2,2.8,8.1,4.8,11.8,6,3.7,1.2,7.1,1.7,10.3,1.5,3.2-.2,6.1-1,8.7-2.5,2.6-1.4,4.9-3.3,7-5.7,2.6-3.1,4.5-6.3,5.6-9.5,1.1-3.3,1.4-6.6,1.1-10-.3-3.4-1.3-6.7-2.8-10-1.5-3.3-3.6-6.5-6.1-9.7-2.6-3.2-5.5-6.2-8.9-9.1l-31.7-27-65.2,76.3,18.7,16ZM686.5,451.7c10.1-.9,19.5-6.4,28-16.4l39.5-46.2-18.7-16-38.7,45.3c-3.4,4-6.7,6.7-9.8,8-3.1,1.3-6.1,1.6-8.9,1-2.8-.7-5.5-2.1-8.2-4.4-2.5-2.2-4.4-4.6-5.5-7.3-1.1-2.7-1.2-5.7-.4-9,.9-3.3,3-7,6.3-10.9l38.7-45.3-18.7-16-39.5,46.2c-3.2,3.8-5.8,7.6-7.8,11.6-2,3.9-3.2,7.9-3.8,11.9-.5,4-.4,8,.6,12,.9,4,2.7,8,5.3,11.9,2.6,4,6.1,7.8,10.5,11.6,10.6,9,20.9,13.1,31,12.1M664.8,340.4l13.6-16-56.4-48.2-13.6,15.9,56.4,48.2ZM594.5,384.6l65.2-76.3-18.7-16-65.2,76.3,18.7,16ZM561.2,356.2l13.6-16-44.5-38-13.6,16,44.5,38ZM532.2,331.4l65.2-76.3-18.7-16-65.2,76.3,18.7,16ZM496.4,289.3c10.1-.9,19.5-6.4,28-16.4l39.5-46.2-18.7-16-38.7,45.3c-3.4,4-6.7,6.7-9.8,8-3.1,1.3-6.1,1.7-8.9,1-2.8-.7-5.5-2.1-8.2-4.4-2.5-2.2-4.4-4.6-5.5-7.3-1.1-2.7-1.2-5.7-.4-9,.9-3.3,3-7,6.3-10.9l38.7-45.3-18.7-16-39.5,46.2c-3.2,3.8-5.8,7.6-7.8,11.6-2,3.9-3.2,7.9-3.8,11.9-.5,4-.4,8,.6,12,.9,4,2.7,8,5.3,11.9,2.6,4,6.1,7.8,10.5,11.6,10.6,9,20.9,13.1,31,12.1M376.8,198.7l24.5-28.7,6.6,5.6c3.1,2.6,5.3,5.2,6.6,7.7,1.3,2.5,1.9,5.1,1.7,8-.2,2.8-1.2,5.9-2.8,9.3l-10.1,20.7,20.8,17.8,10.1-24.2c1.3-3,2.3-6.2,3.2-9.5.9-3.3,1.2-6.7.8-10.2-.3-3.5-1.7-7-3.9-10.6-2.3-3.6-5.9-7.2-10.9-10.8l.8-.9c5.8,2.1,11.5,3.4,17.1,3.9,5.6.5,11.1.2,16.5-.8,5.4-1,10.6-2.7,15.7-5.1,5.1-2.4,9.9-5.4,14.6-9l-21-18c-3.6,2.8-7.5,5.3-11.6,7.5-4.2,2.2-8.5,4-13,5.2-4.5,1.2-9.1,1.8-13.9,1.6-4.8-.1-9.5-1.2-14.3-3.1l27.8-32.6-18.7-16-65.2,76.3,18.7,16Z" fill="#000" stroke="#000" stroke-width="6" stroke-miterlimit="10" />
  <path d="M550.8,519.2l30.6-57.5h.2c0,.1.3,74.1.3,74.1l25.4,13.5,43.7-82.2-19.9-10.6-29.6,55.7h-.2c0-.1.3-71.3.3-71.3l-27-14.4-43.7,82.2,19.9,10.6ZM550.9,435.4l8.9-16.8-43.7-23.2-8.9,16.8,43.7,23.2ZM528.4,463.9l8-15.1-38-20.2-8,15.1,38,20.2ZM516.2,500.8l8.9-16.8-43.7-23.2-8.9,16.8,43.7,23.2ZM477.6,480.2l43.7-82.2-20.2-10.7-43.7,82.2,20.2,10.7ZM478.6,396.9l8.9-16.8-46.1-24.5-8.9,16.8,46.1,24.5ZM455.1,430.8l8.7-16.4-41.8-22.2-8.7,16.4,41.8,22.2ZM407.8,443.2l43.7-82.2-20.2-10.7-43.7,82.2,20.2,10.7ZM370.6,404.7l7.5-14.2-52.4-27.9-7.5,14.2,52.4,27.9ZM316.5,394.6l53.6-56,.7.4-16.6,75.7,21.8,11.6,16.3-96.7-26.1-13.9-71.2,67.5,21.5,11.5ZM291.1,339l9-16.9-44.7-23.8-9,16.9,44.7,23.8ZM234.1,350.8l43.7-82.2-20.2-10.7-43.7,82.2,20.2,10.7ZM283.2,376.9l43.7-82.2-20.2-10.7-43.7,82.2,20.2,10.7Z" fill="#000" stroke="#000" stroke-width="6" stroke-miterlimit="3.9" />
  <line x1="427.2" y1="393.5" x2="424.3" y2="395.7" fill="#ea504c" />
  <path d="M510.3,519l2.8-6.4,2.4-5.9,4.3-10.4,3.1-7.1.6-2.3,2.5-6,1.4-2.9,1.1-2.4,2-5.9s13.8-22.4,13.8-23.5c0-.5,7.7-1.5,8-2l3.1-4.7,5.5-10c-.2-1.3,3.3-3.9,3.3-5.3l4.2-6.4-24.5-13.6-.3-3.1c0-.8-.4-1.6-.7-2.4-.2-.5-.2-1.8-.2-2.5,0-.3-.4-.7-.4-1l-1.5-4.2-2-2.9c-3.3-4.8-6.3-6.7-12-6.9l-6.2-.2c-.6,0-1.3,0-1.9.2l-1.9.5-7.4,1.9-3.6,1.2c-1.9.6-3.8,1.4-5.7,2.2l-3.7,1.6,22-41.5,2.8-.3,5.5-.2,2.8-.3,7.9.7c5.3.7,10.3,1.9,15,4.1l4.8,2.2,1.5,1c5.3,3.6,9.3,8.3,13.1,13.4,1.6,2.1,2.7,4.2,3.5,6.6l1.1,3.2,2,6.3.7,2.2,1,4.9.9,6.2c1.2,14.6-1.3,28-4.5,42.6l-.9,4.1-1.8,7-2.4,8.2-.9,2.4-.7,2c-1,2.6-1.1,4.2-1.6,5.2l-1.1,2.1-5,12.8-1.3,3.5-.5,1.7-1.8,3.9c0,1.1-.6,2.3-1.4,3.2l-1,2.5-.8,1.9c-.8,1.9-1.8,3.8-2.2,5.7-.2,1-.4,1.8-.9,2.8l-1.9,4.3-2.2,4.8-2.7,5.5c-.7,1.5-1.8,2.4-2,4.1l-33-8.2Z" fill="#ea504c" />
</svg>