<svg width="187" height="303" viewBox="0 0 187 303" fill="none" xmlns="http://www.w3.org/2000/svg">
<path d="M147.165 238.653C144.345 245.949 143.661 253.515 143.633 261.294L143.49 299.548C143.49 300.996 142.223 302.629 141.083 302.955C140.072 303.225 137.765 301.55 137.765 300.414L137.722 265.169C137.722 259.165 136.554 253.032 135.087 247.383L130.359 249.626C130.031 249.782 129.376 250.676 129.148 250.477L127.61 249.1C125.659 260.201 131.983 271.06 124.178 271.613C122.782 270.293 122.027 266.872 121.999 264.672L121.771 251.357L115.647 251.968L114.109 253.813C111.616 252.834 109.266 252.266 106.945 252.678L98.4422 254.225L99.8806 255.715C100.037 255.886 99.5815 256.751 99.4249 256.595L98.2001 255.46C97.7158 255.005 96.5764 254.154 95.964 253.927C95.2377 253.671 93.8847 254.807 93.1583 255.261L91.4777 256.326C91.0362 256.609 90.4523 254.849 90.2244 254.395L86.2936 254.395L78.5885 255.957L69.032 257.376C63.9903 255.573 61.9251 258.54 61.9963 258.597L60.8712 257.702L53.0665 258.81C52.568 258.881 51.5426 260.059 51.1438 259.846L49.3208 258.881L45.0339 259.903L43.7806 261.166C43.4957 261.464 42.3991 260.442 42.0857 260.3L36.3461 261.563C32.9422 262.316 28.7123 263.551 25.2372 262.401L17.6746 259.917L12.348 257.887C10.0692 257.021 7.33474 253.785 6.72232 251.372L4.07327 240.882C4.61448 239.604 4.87084 237.958 4.6572 236.056C4.52902 234.948 6.79353 233.657 7.61958 232.89L12.7183 228.149C14.1568 226.815 16.9197 224.43 18.9564 223.678L26.5902 220.825L32.928 218.298L39.28 216.41L44.8915 214.437L40.0776 210.065L32.6289 202.116L29.4387 199.007L19.2697 184.174L17.2758 180.767L8.5026 161.846L6.63687 156.338L4.4863 148.929C3.48934 145.508 3.31843 142.3 3.31843 138.581L1.29604 126.984L0.982712 115.67C0.96847 115.103 1.97967 113.981 1.63785 113.626L-4.46824e-07 111.909L1.99391 111.029C2.34996 110.873 2.33572 110.177 2.42118 109.524L3.03359 104.144L3.57479 99.4032C4.51478 96.8198 4.98477 93.9667 5.01326 91.3265L7.33474 83.491L7.79049 78.4661L9.7844 75.4142C11.6359 72.5753 12.761 69.5376 13.8577 66.4716L16.1222 64.7966C17.0194 64.1294 14.7977 59.871 16.0082 60.453L17.874 61.3473L19.9391 56.4785C22.1039 51.3826 25.7499 47.1384 28.9117 42.6954C30.635 40.2681 32.5292 38.4512 34.7795 36.4214L40.5049 31.2545C40.69 31.0842 41.8863 30.8571 41.8863 30.6583L41.9718 28.6569C41.2027 28.1601 41.7582 28.5149 43.0115 29.324L45.689 26.9109L48.5659 24.5546L54.448 20.4949L59.1194 17.216L66.0981 12.8582L81.4797 7.33644L91.9762 3.84455L104.054 1.26112C107.671 0.480407 110.89 0.835274 114.564 0.650743L126.158 0.0829556C130.53 -0.129965 134.446 0.0261768 138.79 1.034L149.728 3.56066L158.103 5.50533L170.18 10.7148C175.507 13.0001 180.691 16.3927 184.323 20.6653C187.897 24.8669 186.929 31.0558 182.628 34.9309C180.549 36.8046 178.569 38.4796 176.02 38.5222C167.702 38.6925 159.969 37.997 151.936 35.9955L145.641 34.4341L137.566 33.043L128.821 31.8223C125.032 31.2971 120.902 31.1126 117.242 31.652L112.214 32.4043L107.586 33.256L95.8216 37.2021C90.8795 38.8629 87.0626 41.0914 83.1603 44.5833L78.5173 47.7629L72.7635 52.4614L67.5935 56.5069L68.0635 58.7212C68.149 59.1045 66.2548 58.3522 65.9984 58.6503L60.8427 64.4275C58.094 67.5078 55.2313 69.8783 57.1398 72.3624C57.2537 72.5043 57.3107 72.8592 57.1398 72.8166L55.6016 72.3765C53.8071 75.3574 50.9301 78.7358 49.8762 82.1851L47.982 88.4307C47.569 89.7934 47.2414 90.4464 46.6575 91.7239L43.7948 98.0547L42.5415 116.778L42.3136 123.094C42.2282 125.621 42.8691 128.105 43.8233 130.561C43.1966 132.676 43.1254 134.72 43.5669 137.218L46.7857 142.456L50.332 148.843C50.7592 149.823 51.2862 151.015 51.9129 151.299L54.8895 152.605L51.6423 154.152C52.8671 157.289 54.5477 160.668 56.2995 163.521L58.3931 161.292C57.0116 165.465 59.4327 166.53 61.0564 168.673C64.6312 173.4 68.4481 177.176 73.4613 180.285C75.9964 181.86 77.6913 182.627 81.4085 181.477L79.03 184.288L82.206 186.63C85.5102 189.057 90.6659 193.344 93.201 191.328C93.5001 191.087 93.9559 190.136 93.6141 189.98L91.7483 189.156C92.6598 187.183 92.8877 184.94 91.6629 183.18L89.6547 180.327C89.6974 177.843 89.4981 175.444 88.8572 172.648L86.023 160.1C85.966 159.873 84.7839 158.907 84.5987 159.049C84.3139 159.262 85.1115 158.666 85.9802 158.027L86.4502 146.459C86.4502 146.175 85.6242 145.068 85.3963 144.911C85.1684 144.755 86.4929 144.258 86.5784 143.989L88.259 138.141C88.3302 137.885 87.2335 137.161 87.4329 137.005L88.8572 135.898L92.3465 129.553C94.8247 125.067 99.0973 123.123 103.84 122.328L109.964 121.306C112.428 122.413 114.408 122.981 116.701 122.711L120.902 128.928C122.725 131.625 123.594 134.947 125.032 137.97L128.337 144.926C129.334 149.113 129.69 152.79 129.718 157.005C129.718 158.254 130.33 159.206 130.729 160.455L133.677 169.667C134.162 171.186 132.951 173.457 135.443 174.692L136.398 179.944C136.426 180.128 137.509 180.427 137.679 180.498C137.836 180.554 137.907 180.824 137.736 180.852L135.942 181.221C136.939 185.608 138.919 190.576 141.026 194.82L143.747 194.423C142.978 195.274 141.824 196.282 142.208 196.651L144.274 198.61C143.633 202.286 147.521 205.466 146.154 205.651L147.407 205.494C148.062 207.51 149.016 209.597 150.056 211.172L150.312 207.751C151.01 209.81 151.053 211.428 150.711 213.94L152.719 217.02L152.064 219.405C151.936 219.859 153.104 220.356 153.659 220.626L152.733 228.603L149.444 235.715C149.045 236.581 148.219 237.943 147.179 238.696" fill="#FAEF82"/>
</svg>
